<svg width="14" height="14" viewBox="0 0 14 14" fill="none" xmlns="http://www.w3.org/2000/svg">
<g filter="url(#filter0_d_2001_2666)">
<path d="M12.9403 6.9044L7.30887 1.27706C7.26833 1.23643 7.22016 1.2042 7.16715 1.18221C7.11413 1.16022 7.05729 1.1489 6.99989 1.1489C6.94249 1.1489 6.88565 1.16022 6.83263 1.18221C6.77962 1.2042 6.73145 1.23643 6.69091 1.27706L1.05946 6.9044C0.895398 7.06846 0.802429 7.29132 0.802429 7.52374C0.802429 8.00635 1.19481 8.39874 1.67743 8.39874H2.27079V12.4142C2.27079 12.6562 2.4663 12.8517 2.70829 12.8517H6.12489V9.78917H7.65614V12.8517H11.2915C11.5335 12.8517 11.729 12.6562 11.729 12.4142V8.39874H12.3224C12.5548 8.39874 12.7776 8.30714 12.9417 8.14171C13.2821 7.79991 13.2821 7.2462 12.9403 6.9044Z" fill="#1890FF"/>
</g>
<defs>
<filter id="filter0_d_2001_2666" x="-4" y="0" width="22" height="22" filterUnits="userSpaceOnUse" color-interpolation-filters="sRGB">
<feFlood flood-opacity="0" result="BackgroundImageFix"/>
<feColorMatrix in="SourceAlpha" type="matrix" values="0 0 0 0 0 0 0 0 0 0 0 0 0 0 0 0 0 0 127 0" result="hardAlpha"/>
<feOffset dy="4"/>
<feGaussianBlur stdDeviation="2"/>
<feComposite in2="hardAlpha" operator="out"/>
<feColorMatrix type="matrix" values="0 0 0 0 0 0 0 0 0 0 0 0 0 0 0 0 0 0 0.25 0"/>
<feBlend mode="normal" in2="BackgroundImageFix" result="effect1_dropShadow_2001_2666"/>
<feBlend mode="normal" in="SourceGraphic" in2="effect1_dropShadow_2001_2666" result="shape"/>
</filter>
</defs>
</svg>
